<?xml version="1.0" encoding="UTF-8" standalone="no"?>
<!-- Created with Inkscape (http://www.inkscape.org/) -->

<svg
   width="64"
   height="64"
   viewBox="0 0 16.933333 16.933333"
   version="1.1"
   id="svg1"
   inkscape:export-filename="bitmap.png"
   inkscape:export-xdpi="96"
   inkscape:export-ydpi="96"
   inkscape:version="1.3.2 (091e20e, 2023-11-25)"
   sodipodi:docname="favicon.svg"
   xmlns:inkscape="http://www.inkscape.org/namespaces/inkscape"
   xmlns:sodipodi="http://sodipodi.sourceforge.net/DTD/sodipodi-0.dtd"
   xmlns="http://www.w3.org/2000/svg"
   xmlns:svg="http://www.w3.org/2000/svg">
  <sodipodi:namedview
     id="namedview1"
     pagecolor="#ffffff"
     bordercolor="#000000"
     borderopacity="0"
     inkscape:showpageshadow="2"
     inkscape:pageopacity="0.0"
     inkscape:pagecheckerboard="0"
     inkscape:deskcolor="#d1d1d1"
     inkscape:document-units="px"
     inkscape:export-bgcolor="#ffff00ff"
     inkscape:zoom="9.5149206"
     inkscape:cx="36.88943"
     inkscape:cy="32.685507"
     inkscape:window-width="1392"
     inkscape:window-height="943"
     inkscape:window-x="142"
     inkscape:window-y="25"
     inkscape:window-maximized="0"
     inkscape:current-layer="layer1" />
  <defs
     id="defs1" />
  <g
     inkscape:label="Layer 1"
     inkscape:groupmode="layer"
     id="layer1">
    <g
       id="g28"
       transform="matrix(1.0296267,0,0,1.170245,0.58470363,-3.0943067)">
      <path
         style="fill:none;fill-opacity:0;stroke:#000000;stroke-width:0.264583"
         d="M 6.6853051,4.483087 C 6.5516968,4.3587408 6.6117887,4.1052371 6.5673292,3.9718577 6.561466,3.9542709 6.533866,3.9501196 6.5280036,3.9325325 c -0.00996,-0.029873 -0.00996,-0.2060787 0,-0.235952 0.00586,-0.017587 0.031035,-0.022744 0.039326,-0.039325 0.020164,-0.040327 0.019161,-0.1169747 0.039325,-0.1573014 0.041182,-0.082363 0.119203,-0.1597554 0.1573011,-0.235952 0.023596,-0.04719 0.094381,-0.070785 0.1179761,-0.1179758 0.00586,-0.011724 -0.00927,-0.030056 0,-0.039325 0.00927,-0.00927 0.030056,0.00927 0.039325,0 0.00321,-0.00321 0.1540878,-0.2327386 0.1573012,-0.235952 0.035055,-0.035055 0.1155369,-0.018444 0.1573014,-0.039325 0.1673053,-0.083653 0.3923456,-0.079105 0.5505545,0 0.035174,0.017587 0.080669,-0.012435 0.1179761,0 0.040734,0.013578 0.078962,0.059144 0.1179759,0.078651 0.1135234,0.056762 0.2706938,0.071775 0.3539278,0.1966267 0.041836,0.062754 0.1238284,0.2811296 0.1573014,0.3146025 0.00927,0.00927 0.03518,-0.012435 0.039325,0 0.019664,0.058988 -0.019664,0.1376387 0,0.1966267 0.026513,0.07954 0.061271,0.069517 0.039325,0.1573012 -0.028118,0.1124698 -0.042402,0.245183 -0.078651,0.3539278 -0.030098,0.090295 -0.1142749,0.1498989 -0.1573014,0.235952 -0.021238,0.042477 -0.055868,0.1365985 -0.1179759,0.1573014 -0.024871,0.00829 -0.055202,-0.011724 -0.07865,0 -0.011724,0.00586 0.011724,0.033463 0,0.039325 -0.02345,0.011724 -0.053779,-0.00829 -0.078651,0 -0.075425,0.025141 -0.1624245,0.093467 -0.2359519,0.1179759 -0.076434,0.025479 -0.2033755,-0.035951 -0.2752773,0 -0.016581,0.00829 -0.022744,0.031035 -0.039325,0.039326 -0.04187,0.020936 -0.3427378,0.025257 -0.3932531,0 C 7.0025037,4.6416862 6.8663502,4.555505 6.6853051,4.483087 Z"
         id="path1" />
      <path
         style="fill:none;fill-opacity:0;stroke:#000000;stroke-width:0.264583"
         d="M 7.8257394,3.6965805 7.9437155,3.5392791"
         id="path3" />
      <path
         style="fill:none;fill-opacity:0;stroke:#000000;stroke-width:0.264583"
         d="M 7.2917087,3.6206453 7.4096848,3.4633439"
         id="path3-2" />
      <path
         style="fill:none;fill-opacity:0;stroke:#000000;stroke-width:0.264583"
         d="m 7.0352223,3.97643 c 0.085496,0.1025948 0.056075,0.049814 0.097325,0.1529398 0.00927,0.023172 0.016645,0.047195 0.027807,0.069518 0.00673,0.013467 0.049928,0.05246 0.055614,0.069518 0.00293,0.00879 -0.00415,0.019516 0,0.027807 1.733e-4,3.44e-4 0.1201552,0.054121 0.1251323,0.055614 0.069592,0.020878 0.1230637,0.035761 0.1946505,0.027807 0.098702,-0.010967 0.1808361,-0.069562 0.2641684,-0.1112287 0.00415,-0.00206 0.010626,0.00328 0.013904,0 0.00328,-0.00328 -0.00328,-0.010626 0,-0.013904 0.00464,-0.00464 0.037076,-0.00927 0.041711,-0.013904 0.028767,-0.028767 -0.04396,0.00111 0.013904,-0.027807 0.00415,-0.00206 0.010626,0.00328 0.013904,0 0.00911,-0.00911 0.00694,-0.048649 0.013904,-0.055614 0.00328,-0.00328 0.010626,0.00328 0.013904,0 0.00655,-0.00655 -0.00655,-0.021254 0,-0.027807 0.018539,-0.018539 0.013904,0.023172 0.013904,-0.013904"
         id="path6" />
      <path
         style="fill:none;fill-opacity:0;stroke:#000000;stroke-width:0.264583"
         d="M 6.7710539,3.2117321 C 6.68847,3.2566932 6.6642323,3.3325935 6.6181144,3.4063823 6.5621767,3.4958827 6.4910115,3.5712 6.451271,3.6705508 6.420458,3.7475848 6.401731,3.8270002 6.381753,3.9069121 6.362359,3.9844941 6.323206,4.0547461 6.298331,4.1293698 6.273979,4.2024228 6.25912,4.285511 6.214909,4.3518272 6.18344,4.3990312 6.133585,4.4172922 6.0897765,4.4491522 c -0.058933,0.04286 -0.1779255,0.14273 -0.2502649,0.1668431 -0.021984,0.00733 -0.046524,-0.00287 -0.069518,0 -0.1427477,0.017843 -0.2290315,0.021233 -0.3336864,-0.083422"
         id="path7" />
      <path
         style="fill:none;fill-opacity:0;stroke:#000000;stroke-width:0.264583"
         d="m 6.6737287,3.1561174 c -0.031724,0.070987 -0.079374,0.1197364 -0.1251323,0.180747 -0.00622,0.00829 -0.00657,0.020479 -0.013904,0.027807 C 6.4876214,3.4117424 6.3077603,3.4753498 6.2427167,3.489804 6.0255036,3.538073 6.3811544,3.424636 6.1175842,3.503708 6.0239542,3.531797 5.932302,3.570103 5.8395121,3.601033 5.7636631,3.626317 5.6786857,3.637764 5.6031511,3.656647 5.5275614,3.675544 5.3974917,3.6270054 5.3250792,3.6149367 5.2823787,3.6078194 5.2548742,3.6035384 5.2138503,3.5871295 5.1497579,3.5614914 4.977489,3.4813332 4.977489,3.4063826"
         id="path8" />
      <path
         style="fill:none;fill-opacity:0;stroke:#000000;stroke-width:0.264583"
         d="m 6.3956567,3.6427436 c -0.09355,0.08946 -0.1897991,0.1700297 -0.3058792,0.2363613 -0.077206,0.044117 -0.00634,0.017073 -0.1112288,0.069518 -0.028154,0.014079 -0.071261,0.014774 -0.097325,0.027807 -0.065879,0.03294 0.093937,-0.00814 -0.055614,0.041711 -0.026744,0.00891 -0.055953,0.00756 -0.083422,0.013904 -0.087366,0.020161 -0.1780284,0.044907 -0.2641685,0.069518 -0.035108,0.01003 -0.061848,0.027807 -0.097325,0.027807 -0.058181,0 -0.2431323,0.052229 -0.2919757,0.027807 -0.031548,-0.015774 -0.064276,-0.03909 -0.097325,-0.055614 -0.00714,-0.00357 -0.041711,-0.034901 -0.041711,-0.027807 0,0.00324 0.021783,-0.013904 0.027807,-0.013904"
         id="path9" />
      <path
         style="fill:none;fill-opacity:0;stroke:#000000;stroke-width:0.264583"
         d="m 8.5507149,3.6566472 c 0.069315,0.089304 0.069035,0.2046147 0.111229,0.3058792 0.054115,0.1298758 0.036084,0.035865 0.069518,0.1807469 0.014679,0.063614 0.018513,0.1327928 0.041711,0.1946503 0.035077,0.093538 0.083465,0.1947156 0.1390359,0.2780721 0.05268,0.07902 0.060479,0.066301 0.1251326,0.1390361 0.033021,0.037149 0.042709,0.068245 0.083422,0.097325 0.016864,0.012046 0.038749,0.015761 0.055614,0.027807 0.015999,0.01143 0.02485,0.031594 0.041711,0.041711 0.00795,0.00477 0.019516,-0.00415 0.027807,0 0.00415,0.00206 -0.00328,0.010626 0,0.013904 0.00542,0.00542 0.04713,0 0.055614,0 0.065618,0 0.1580909,0.035359 0.2224574,0.013904 0.00622,-0.00206 0.00804,-0.010972 0.013904,-0.013904 0.011912,-0.00596 0.082544,-0.00739 0.097325,0 0.04747,0.023736 -0.043,0.013904 0.055614,0.013904"
         id="path10" />
      <path
         style="fill:none;fill-opacity:0;stroke:#000000;stroke-width:0.264583"
         d="m 8.5507149,3.5315149 c 0.027807,0.027807 0.054323,0.056968 0.083422,0.083422 0.055472,0.050429 0.098329,0.070523 0.1529395,0.1251323 0.072831,0.072831 0.040042,0.060271 0.097325,0.1390362 0.068161,0.093721 0.1439553,0.1811737 0.2085541,0.278072 0.078619,0.1179288 0.1592548,0.238378 0.2502649,0.34759 0.080484,0.096581 0.2457688,0.2624117 0.34759,0.3336864 0.067257,0.04708 0.1416246,0.077326 0.2085541,0.1251324 0.084131,0.060094 0.2647695,0.074959 0.3614935,0.055615 0.02722,-0.00545 0.04706,-0.030481 0.06952,-0.041711 0.01783,-0.00892 0.05561,-0.022238 0.05561,-0.041711"
         id="path11" />
      <path
         style="fill:none;fill-opacity:0;stroke:#000000;stroke-width:0.264583"
         d="m 8.6897511,3.6149364 c 0.027807,0 0.055784,-0.00307 0.083422,0 0.039355,0.00437 0.073663,0.029189 0.1112287,0.041711 0.041946,0.013981 0.1379117,0.036144 0.1807469,0.055614 0.024601,0.011184 0.044823,0.030736 0.069518,0.041711 0.04614,0.020508 0.1049557,0.025715 0.1529397,0.041711 0.2282897,0.076097 -0.068676,-0.017063 0.1251323,0.055614 0.1410626,0.052898 0.3652489,0.082407 0.5144334,0.097325 0.1191809,0.011917 0.2623409,0.053931 0.3753979,-0.013904 0.01124,-0.00674 0.01608,-0.021945 0.02781,-0.027807 0.08183,-0.040916 -0.03661,0.064418 0.05561,-0.027807"
         id="path12" />
      <path
         style="fill:none;fill-opacity:0;stroke:#000000;stroke-width:0.264583"
         d="m 7.0352223,4.782839 c -0.03239,0.079873 -0.029811,0.1728557 -0.055614,0.2502649 -0.00415,0.012435 -0.023662,0.015372 -0.027807,0.027807 -0.00586,0.017587 0.00586,0.038028 0,0.055614 -0.034361,0.1030843 -0.027807,-0.033896 -0.027807,0.055614"
         id="path13" />
      <path
         style="fill:none;fill-opacity:0;stroke:#000000;stroke-width:0.264583"
         d="m 7.8416313,4.8384533 c 0.025754,0.119434 0.082726,0.1918682 0.1112287,0.3058793 0.00615,0.024582 -0.018936,0.1479074 0,0.1668433 0.037076,0.037076 0.027807,-0.046346 0.027807,0.027807"
         id="path14" />
      <path
         style="fill:none;fill-opacity:0;stroke:#000000;stroke-width:0.264583"
         d="m 6.8405721,5.2833685 c -0.037076,0.018539 -0.074153,0.037076 -0.111229,0.055615 0,0.00927 0.00655,0.021254 0,0.027807 -0.015616,0.015616 -0.3143861,0.027807 -0.3614936,0.027807 -0.061966,0 -0.1648698,-0.019196 -0.2224577,0 -0.012435,0.00415 -0.014698,0.027807 -0.027807,0.027807 -0.020727,0 -0.034888,-0.027807 -0.055614,-0.027807 -0.013107,0 -0.015372,0.023662 -0.027807,0.027807 -0.024545,0.00818 -0.082016,0 -0.1112287,0 -0.1628743,0 -0.3375459,-0.011975 -0.4727226,0.055614 -0.052507,0.026255 -0.061197,0.089004 -0.083422,0.1112287 -0.02118,0.02118 -0.090332,0.013822 -0.111229,0.055615 -0.016566,0.033132 -0.030503,0.1139246 -0.055614,0.1390359 -0.013904,0.013904 -0.041711,0.013904 -0.055614,0.027807 -0.00927,0.00927 -0.018537,0.074153 -0.027807,0.083422 -0.00655,0.00655 -0.021254,-0.00655 -0.027807,0 -0.01823,0.01823 -0.013875,0.097298 -0.027807,0.111229 -0.00655,0.00655 -0.021254,-0.00655 -0.027807,0 -0.013108,0.013108 0.00829,0.039034 0,0.055614 -0.020074,0.040148 -0.035541,0.071081 -0.055615,0.1112287 -0.0084,0.01679 0.012854,0.070568 0,0.083422 -0.00655,0.00655 -0.021254,-0.00655 -0.027807,0 -0.018537,0.018537 0.018539,0.092691 0,0.1112287 -0.00655,0.00655 -0.023662,-0.00829 -0.027807,0 -0.015312,0.030623 0.010869,0.078622 0,0.1112287 -0.020558,0.061673 -0.02926,0.1141344 -0.055614,0.1668434 -0.011123,0.022246 0.011123,0.061176 0,0.083422 -0.04105,0.0821 -0.072086,0.1719792 -0.1112287,0.2502649 -0.011123,0.022246 0.011123,0.061176 0,0.083422 -0.00586,0.011724 -0.023662,0.015372 -0.027807,0.027807 -0.00188,0.00561 0.00925,0.1019773 0,0.111229 -0.00655,0.00655 -0.021254,-0.00655 -0.027807,0 -0.012854,0.012853 0.0084,0.066632 0,0.083422 -0.020074,0.040148 -0.035541,0.071081 -0.055615,0.1112287 -0.00829,0.016582 0.00829,0.039033 0,0.055615 -0.023244,0.046485 -0.067151,0.090224 -0.083421,0.1390359 -0.00586,0.017587 0.00829,0.039033 0,0.055614 -0.00415,0.00829 -0.021254,-0.00655 -0.027807,0 -0.00655,0.00655 0.00415,0.019516 0,0.027807 -0.011724,0.02345 -0.04389,0.032165 -0.055614,0.055615 -0.020706,0.041413 -0.035003,0.097813 -0.055614,0.1390359 -0.00829,0.016581 0.00829,0.039033 0,0.055614 -0.03233,0.064659 -0.051092,0.1299917 -0.083422,0.1946506 -0.0084,0.01679 0.012854,0.070567 0,0.083422 -0.00655,0.00655 -0.021254,-0.00655 -0.027807,0 -0.023559,0.023559 -0.013737,0.124632 -0.027807,0.1668433 -0.013676,0.041028 -0.043953,0.076245 -0.055614,0.1112287 -0.0087,0.026109 -0.021291,0.1603272 -0.027807,0.1668434 -0.013904,0.013904 -0.041711,0.013904 -0.055614,0.027807 -0.023172,0.023172 -0.00464,0.088056 -0.027807,0.1112287 -0.00655,0.00655 -0.021254,-0.00655 -0.027807,0 -0.057534,0.057534 0.08792,-0.00225 -0.027807,0.055614 -0.00829,0.00415 -0.021254,-0.00655 -0.027807,0 -0.00655,0.00655 0.00415,0.019516 0,0.027807 -0.025847,0.051693 -0.097293,0.090358 -0.1390359,0.111229 -0.1157269,0.057863 0.029727,-0.00193 -0.027807,0.055614 -0.00655,0.00655 -0.021254,-0.00655 -0.027807,0 -0.01823,0.01823 -0.013875,0.097297 -0.027807,0.1112287 -0.013904,0.013904 -0.041711,0.013904 -0.055615,0.027807 -0.00655,0.00655 0.00655,0.021254 0,0.027807 -0.029715,0.029716 -0.055614,-0.03953 -0.055614,0.027807"
         id="path15" />
      <path
         style="fill:none;fill-opacity:0;stroke:#000000;stroke-width:0.264583"
         d="M 4.3935382,9.565678 C 4.4676983,9.2932696 4.6574773,9.0599534 4.8106462,8.8148834 4.886222,8.6939619 4.9483351,8.5664147 5.0331039,8.4533898 5.1109639,8.3495763 5.2333157,8.2791312 5.3111759,8.1753177 5.3416382,8.1347013 5.5512173,7.8723015 5.5614405,7.8416313 c 0.00586,-0.017587 -0.00829,-0.039033 0,-0.055614 0.00415,-0.00829 0.021254,0.00655 0.027807,0 0.1085241,-0.1085241 -0.00644,-0.014933 0.027807,-0.083422 0.028789,-0.057577 0.054972,-0.1099452 0.083422,-0.166843 0.00829,-0.016582 -0.013108,-0.042506 0,-0.055614 0.00655,-0.00655 0.021254,0.00655 0.027807,0 0.013107,-0.013107 -0.00829,-0.039033 0,-0.055614 0.019682,-0.039367 0.047727,-0.1589559 0.055614,-0.1668434 0.00655,-0.00655 0.021254,0.00655 0.027807,0 0.013108,-0.013107 -0.013108,-0.042506 0,-0.055614 0.00655,-0.00655 0.021254,0.00655 0.027807,0 0.013107,-0.013108 -0.013108,-0.042506 0,-0.055614 0.00655,-0.00655 0.021254,0.00655 0.027807,0 0.00655,-0.00655 -0.00655,-0.021254 0,-0.027807 0.00655,-0.00655 0.021254,0.00655 0.027807,0 0.00655,-0.00655 -0.00655,-0.021254 0,-0.027807 0.00655,-0.00655 0.019516,0.00415 0.027807,0 0.02345,-0.011724 0.032165,-0.04389 0.055614,-0.055614 0.00829,-0.00415 0.021254,0.00655 0.027807,0 0.00655,-0.00655 -0.00655,-0.021254 0,-0.027807 0.013904,-0.013904 0.041711,-0.013904 0.055614,-0.027807 0.011652,-0.011652 0.019381,-0.066569 0.027807,-0.083422 0.032426,-0.064853 0.1112287,-0.088111 0.1112287,-0.1668433"
         id="path16" />
      <path
         style="fill:none;fill-opacity:0;stroke:#000000;stroke-width:0.264583"
         d="m 6.173199,7.1464513 c -0.045085,0.1904489 -0.07359,0.386221 -0.055614,0.5839513 0.024852,0.2733865 0.094393,0.5385501 0.1390362,0.8064087 0.033852,0.2031148 0,0.5112531 0,0.7229874 0,0.1172311 0.028362,0.2758509 0,0.3893008 -0.00703,0.028107 -0.079418,0.3574895 -0.083422,0.3614935 -0.00655,0.0066 -0.021254,-0.0066 -0.027807,0 -0.013107,0.01311 0.013108,0.04251 0,0.05561 -0.00655,0.0066 -0.021254,-0.0066 -0.027807,0 -0.013107,0.01311 0.00829,0.03903 0,0.05561 -0.00586,0.01172 -0.021945,0.01608 -0.027807,0.02781 -0.011123,0.02225 0.011123,0.06118 0,0.08342 -0.026662,0.05332 -0.054744,0.109489 -0.083422,0.166843 -0.0084,0.01679 0.012854,0.07057 0,0.08342 -0.00655,0.0066 -0.021254,-0.0066 -0.027807,0 -0.013107,0.01311 0.00586,0.03803 0,0.05561 -0.018791,0.05637 -0.041252,0.109394 -0.055614,0.166843 -0.016391,0.06556 0,0.154036 0,0.222458"
         id="path17" />
      <path
         style="fill:none;fill-opacity:0;stroke:#000000;stroke-width:0.264583"
         d="m 9.1763769,10.622352 c 0,-0.162184 -0.092282,-0.309083 -0.1390358,-0.472723 -0.028135,-0.09847 -0.037174,-0.2133834 -0.083422,-0.3058794 -0.00586,-0.011723 -0.023657,-0.015372 -0.027807,-0.027807 -0.062681,-0.1880447 0.1448965,-0.7464269 0.1946505,-0.9454449 0.0244,-0.097598 0,-0.2319004 0,-0.3336864 0,-0.077386 0.027807,-0.1172642 0.027807,-0.1946502 0,-0.048132 -0.044528,-0.2226471 -0.055614,-0.2780721 -0.00909,-0.045445 0.01124,-0.094074 0,-0.1390362 C 9.0579491,7.7850269 8.9827847,7.6522677 8.9539197,7.5079449 c -0.00882,-0.044121 0.010901,-0.095429 0,-0.1390362 -0.012107,-0.048425 -0.043508,-0.090611 -0.055615,-0.1390359 -0.026567,-0.1063066 -0.00604,-0.2262653 -0.027807,-0.3336864 0.1216112,0.085664 0.2519667,0.1636 0.3893009,0.2224575 0.057151,0.024493 0.1096919,0.058928 0.1668432,0.083422 0.035127,0.015054 0.077046,0.010716 0.1112288,0.027807 0.1695745,0.084787 0.5325494,0.3657057 0.6673724,0.5005296 0.0952,0.095198 0.203465,0.2217753 0.278072,0.3336864 0.04421,0.066311 0.188016,0.1257659 0.222458,0.1946505 0.02169,0.043379 0.2029,0.2961003 0.222458,0.3058792 0.05956,0.029782 0.190926,-0.014835 0.250265,0 0.009,0.00225 0,0.018538 0,0.027807 0.0093,0 0.01854,0 0.02781,0"
         id="path18" />
      <path
         style="fill:none;fill-opacity:0;stroke:#000000;stroke-width:0.264583"
         d="m 8.2031249,5.478019 c 0.3593552,-0.094365 0.6282446,-0.058445 0.973252,0.027807 0.041621,0.010406 0.1091327,0.06847 0.1390362,0.083422 0.064852,0.032426 0.1533491,0.060386 0.2224574,0.083422 0.017587,0.00586 0.042506,-0.013107 0.055615,0 0.00655,0.00655 -0.00655,0.021254 0,0.027807 0.013904,0.013904 0.069518,-0.013904 0.083422,0 0.011131,0.011131 0.01506,0.035337 0.055614,0.055614 0.00829,0.00415 0.021254,-0.00655 0.027807,0 0.013904,0.013904 0.013904,0.041711 0.027807,0.055614 0.023172,0.023172 0.088056,0.00464 0.111229,0.027807 0.00655,0.00655 -0.00655,0.021254 0,0.027807 0.00151,0.00151 0.081915,0.054108 0.083422,0.055615 0.057535,0.057534 -0.08792,-0.00225 0.027807,0.055614 0.03836,0.019177 0.02487,-0.033676 0.05561,0.027807 0.0041,0.00829 -0.0066,0.021254 0,0.027807 0.05753,0.057534 -0.0022,-0.08792 0.05561,0.027807 0.0041,0.00829 -0.0066,0.021254 0,0.027807 0.01708,0.017084 0.0648,0.01837 0.08342,0.055614 0.0041,0.00829 -0.0066,0.021254 0,0.027807 0.0066,0.00655 0.01952,-0.00415 0.02781,0 0.06508,0.032541 0.106453,0.1265833 0.166843,0.1668433 0.0077,0.00514 0.02125,-0.00655 0.02781,0 0.0066,0.00655 -0.0066,0.021254 0,0.027807 0.0015,0.00151 0.08191,0.054108 0.08342,0.055614 0.01835,0.018352 0.03928,0.08916 0.08342,0.1112289 0.02172,0.010858 0.114739,0.031317 0.139036,0.055614 0.0066,0.00655 -0.0041,0.019516 0,0.027807 0.01916,0.038321 0.06522,0.037408 0.08342,0.055614 0.0034,0.00338 0.101305,0.1569196 0.111229,0.1668434 0.02363,0.023633 0.05979,0.031983 0.08342,0.055614 0.02931,0.029311 0.03262,0.076738 0.05561,0.1112287 0.02181,0.032721 0.06161,0.050701 0.08342,0.083422 0.0177,0.026549 0.03417,0.079056 0.05561,0.111229 0.05704,0.085561 0.165417,0.136897 0.222458,0.2224577 0.01692,0.025381 0.06654,0.1499605 0.08342,0.166843 0.0066,0.00655 0.02366,-0.00829 0.02781,0 0.0083,0.016582 -0.0059,0.038028 0,0.055614 0.01061,0.031842 0.04071,0.081412 0.05561,0.111229 0.01862,0.037243 0.06634,0.03853 0.08342,0.055614 0.0066,0.00655 -0.0066,0.021254 0,0.027807 0.0139,0.013904 0.04171,0.013904 0.05562,0.027807 0.01311,0.013107 -0.01311,0.042506 0,0.055614 0.0066,0.00655 0.02125,-0.00655 0.02781,0 0.01311,0.013108 -0.0083,0.039034 0,0.055614 0.02141,0.042828 0.05561,0.046229 0.05561,0.083422"
         id="path19" />
      <path
         style="fill:none;fill-opacity:0;stroke:#000000;stroke-width:0.264583"
         d="m 11.92929,8.1753177 c 0.145311,0.1607288 0.700882,0.2616684 0.778602,0.417108 0.0197,0.039391 0.01438,0.098759 0.02781,0.1390361 0.0041,0.012435 0.02781,0.014698 0.02781,0.027807 0,0.00927 -0.02125,0.00655 -0.02781,0 -0.0066,-0.00655 0.0066,-0.021254 0,-0.027807 -0.03117,-0.031174 -0.153643,0.020503 -0.194651,0 -0.0618,-0.030899 -0.133402,-0.02499 -0.19465,-0.055614 -0.04145,-0.020727 -0.157574,-0.083422 -0.111229,-0.083422 0.03664,0 0.07898,0.067297 0.111229,0.083422 0.158537,0.079268 0.416939,0.360985 0.472723,0.5283366 0.0053,0.015841 0.06416,0.2502649 0,0.2502649 -0.114024,0 -0.50282,-0.2803615 -0.583952,-0.3614936 -0.04305,-0.043052 -0.08822,-0.1051592 -0.139036,-0.1390359 -0.01725,-0.011496 -0.04096,-0.013152 -0.05561,-0.027807 -0.0066,-0.00655 -0.0066,-0.034361 0,-0.027807 0.01465,0.014655 0.01315,0.040959 0.02781,0.055615 0.01465,0.014655 0.04096,0.013153 0.05561,0.027807 0.08386,0.083865 0.263735,0.3825655 0.139035,0.4449151 -0.131088,0.065544 -0.244152,-0.1607312 -0.305879,-0.2224577 -0.02969,-0.029695 -0.0784,-0.050596 -0.111229,-0.083422 -0.03395,-0.03395 -0.0844,-0.04318 -0.111228,-0.083422 -0.0115,-0.017246 -0.01315,-0.040959 -0.02781,-0.055614 -0.0066,-0.00655 -0.02781,-0.00927 -0.02781,0 0,0.020728 0.04412,0.010562 0.05562,0.027807 0.06573,0.098597 0.02734,0.082036 0.05561,0.166843 0.0041,0.012436 0.02366,0.015372 0.02781,0.027807 0.02686,0.080581 -0.03063,0.304469 -0.139036,0.2502649 -0.06815,-0.034075 -0.06478,-0.1109353 -0.08342,-0.1668431 -0.0041,-0.012435 -0.02366,-0.015372 -0.02781,-0.027807 -0.0029,-0.00857 -0.02495,-0.1026625 -0.02781,-0.1112289 -0.0029,-0.00879 0.0066,-0.034362 0,-0.027807 -0.05929,0.059294 -0.0059,0.1290264 -0.02781,0.1946505 -0.0099,0.029714 -0.110517,0.1247767 -0.139036,0.1390359 -0.109737,0.054869 -0.209396,-0.087529 -0.278072,-0.1390359 -0.01658,-0.012435 -0.04096,-0.013152 -0.05561,-0.027807 -0.02684,-0.026838 -0.180331,-0.4314282 -0.139036,-0.4727225 0.0066,-0.00655 0.02125,0.00655 0.02781,0 0.01605,-0.01605 0.08342,-0.1584736 0.08342,-0.1946506"
         id="path20" />
      <path
         style="fill:none;fill-opacity:0;stroke:#000000;stroke-width:0.264583"
         d="m 3.7261651,9.2597987 c -0.175405,0.078025 -0.3762287,0.019632 -0.5561441,0.055614 -0.020323,0.00406 -0.037076,0.018537 -0.055614,0.027807 -0.027807,0.00927 -0.054509,0.02299 -0.083422,0.027807 -0.036572,0.0061 -0.078067,-0.016582 -0.1112287,0 -0.0848,0.0424 0.050858,0.022045 -0.083422,0.055614 -0.04467,0.011168 -0.190501,0.023659 -0.2224575,0.055614 -0.00655,0.00655 0.00415,0.019516 0,0.027807 -0.044219,0.088437 -0.2015456,0.1808601 -0.139036,0.3058792 0.00895,0.017907 0.089557,0.044779 0.1112288,0.055615 0.058838,0.029419 0.142537,-0.017386 0.1946504,-0.027807 0.1442034,-0.028841 0.3049039,-0.036751 0.4449154,-0.083422 0.04707,-0.01569 0.091011,-0.043608 0.1390358,-0.055614 0.027513,-0.00688 0.1946506,-0.015108 0.1946506,-0.055614 0,-0.034758 -0.072431,0.060143 -0.111229,0.083422 -0.025135,0.015081 -0.057205,0.014698 -0.083422,0.027807 -0.053085,0.026543 -0.085951,0.084686 -0.1390358,0.111229 -0.016582,0.00829 -0.04019,-0.010284 -0.055615,0 -0.078298,0.00172 -0.00708,0.062695 -0.027807,0.083422 -0.057534,0.057534 0.00225,-0.08792 -0.055614,0.027807 -0.00829,0.016582 0.00829,0.039033 0,0.055614 -0.00586,0.01172 -0.027807,0.0147 -0.027807,0.02781 0,0.05786 0.038996,0.01119 0.055614,0.02781 0.00655,0.0066 -0.00927,0.02781 0,0.02781 0.013107,0 0.0147,-0.02781 0.027807,-0.02781 0.013107,0 0.015372,0.02366 0.027807,0.02781 0.047818,0.01594 0.0967,-0.01934 0.1390362,-0.02781 0.0309,-0.0062 0.080185,0.01035 0.1112287,0 0.089933,-0.02998 0.2030442,-0.08902 0.2780721,-0.139037 0.00445,-0.00297 0.1412258,-0.081232 0.1390361,-0.083422 -0.011316,-0.011316 -0.079461,0.132435 -0.083422,0.139036 -0.010316,0.01719 -0.1473446,0.214149 -0.1390359,0.222458 0.00765,0.0076 0.3324746,-0.01813 0.3614936,-0.02781 0.0378,-0.0126 0.1143606,-0.114361 0.1390362,-0.139037 0.00927,-0.0093 0.021945,-0.01608 0.027807,-0.02781 0.00415,-0.0083 -0.00655,-0.03436 0,-0.02781 0.081337,0.08134 0.0291,0.250911 0.1390359,0.305879 0.05563,0.02782 0.1749661,-0.09967 0.1946506,-0.139036 0.00829,-0.01658 -0.0045,-0.03763 0,-0.05561 0.031952,-0.12781 0.027807,-0.0063 0.027807,-0.08342 0,-0.0093 0,-0.03708 0,-0.02781 0,0.01399 0.042805,0.263074 0.083422,0.222458 0.023873,-0.02387 0.019793,-0.106978 0.027807,-0.139036 0.047313,-0.189252 0.083771,-0.2773744 0,-0.4449157 -0.01901,-0.03802 -0.025472,-0.083422 -0.083422,-0.083422"
         id="path21" />
      <path
         style="fill:none;fill-opacity:0;stroke:#000000;stroke-width:0.264583"
         d="m 5.7004767,10.900424 c -0.00386,0.03157 0.051969,0.146326 0.027807,0.19465 -0.016195,0.03239 -0.039419,0.05103 -0.055614,0.08342 -0.012435,0.02487 0.00879,0.05704 0,0.08342 -0.00415,0.01244 -0.021944,0.01608 -0.027807,0.02781 -0.012155,0.02431 0.00587,0.08775 0,0.111229 -0.023072,0.09228 -0.032544,0.185789 -0.055615,0.278072 -0.017261,0.06905 0.046426,0.157413 0.027807,0.194651 -0.046053,0.09211 -0.047594,0.142783 -0.083422,0.250265 -0.016685,0.05006 0.012835,0.115503 0,0.166843 -0.092892,0.37157 -0.017825,1.023163 0.055614,1.39036 0.014311,0.07156 -0.027807,0.147646 -0.027807,0.222458 0,0.197058 -0.00674,-0.04721 0.027807,0.19465 0.015182,0.10627 -0.00721,0.06385 -0.027807,0.166843 -0.01605,0.08025 0.011594,0.169104 0,0.250265 -0.012229,0.0856 -0.083422,0.193458 -0.083422,0.278072 0,0.03822 0.027807,0.07301 0.027807,0.111229 0,0.02073 -0.023744,0.03529 -0.027807,0.05561 -0.010906,0.05454 -0.00914,0.111986 0,0.166844 0.012592,0.07555 0.043902,0.141986 0.027807,0.222457 -0.026138,0.13069 -0.061643,0.258627 -0.083422,0.389301 -0.010816,0.06489 -0.03591,0.107731 -0.055614,0.166843 -0.030692,0.09208 -0.00545,0.272072 -0.027807,0.361494 -0.00318,0.01272 -0.023662,0.01537 -0.027807,0.02781 -0.015235,0.0457 0.021593,0.12366 0,0.166843 -0.023402,0.0468 -0.027807,0.05405 -0.027807,0.111229 0,0.06622 -0.079145,0.190374 -0.1390359,0.250265 -0.00927,0.0093 -0.016081,0.02195 -0.027807,0.02781 -0.00829,0.0041 -0.027807,-0.0093 -0.027807,0 0,0.0065 0.043565,-0.02781 0.055614,-0.02781"
         id="path22" />
      <path
         style="fill:none;fill-opacity:0;stroke:#000000;stroke-width:0.264583"
         d="m 9.2876059,10.650159 c 0.059298,0.05764 0.0098,0.13163 0.027807,0.19465 0.011388,0.03986 0.041059,0.07242 0.055614,0.111229 0.1013793,0.270345 0.110768,0.581648 0.166843,0.862023 0.042699,0.213496 0.1338821,0.425318 0.1668434,0.639566 0.00846,0.05497 -0.00503,0.111457 0,0.166843 0.029451,0.323965 0.021077,-0.02605 0.055614,0.250265 0.014809,0.118471 -0.01688,0.24333 0,0.361494 0.00415,0.02902 0.02299,0.05451 0.027807,0.08342 0.02558,0.153476 -0.022013,0.318621 0,0.472723 0.023868,0.167079 0.031744,0.333438 0.055615,0.500529 0.015431,0.108013 -0.02137,0.226832 0,0.333687 0.00406,0.02032 0.023741,0.03529 0.027807,0.05561 0.017722,0.08861 -0.012774,0.188657 0,0.278072 0.00415,0.02902 0.022987,0.05451 0.027807,0.08342 0.022445,0.134667 -0.026755,0.283335 0,0.417108 0.00406,0.02032 0.022781,0.03551 0.027807,0.05561 0.019629,0.07851 -0.019629,0.171751 0,0.250265 0.00503,0.02011 0.018537,0.03708 0.027807,0.05561 0.00927,0.02781 0.022058,0.05468 0.027807,0.08342 0.00545,0.02727 -0.012435,0.05855 0,0.08342 0.00586,0.01172 0.024627,0.01509 0.027807,0.02781 0.0067,0.02698 -0.0088,0.05704 0,0.08342 0.01057,0.03171 0.0432,0.05239 0.05561,0.08342 0.01194,0.02984 0.0033,0.114558 0.02781,0.139036 0.03708,0.03708 0.02668,-0.05899 0.05561,0.02781 0.0059,0.01759 -0.01028,0.04019 0,0.05561 0.0115,0.01724 0.04096,0.01315 0.05562,0.02781 0.05764,0.05764 0.04327,0.162235 0.08342,0.222458 0.03275,0.04912 0.194651,0.198581 0.194651,0.222457"
         id="path23" />
      <path
         style="fill:none;fill-opacity:0;stroke:#000000;stroke-width:0.264583"
         d="m 7.2298728,16.684322 c 0.047256,-0.305555 0.039952,-0.613354 0.083422,-0.917638 0.01552,-0.108648 -0.018037,-0.22546 0,-0.333686 0.013028,-0.07818 0.064802,-0.147978 0.083422,-0.222458 0.017711,-0.07085 0.024627,-0.132678 0.055615,-0.19465 0.017373,-0.03475 0.025514,-0.13445 0.055614,-0.194651 0.012435,-0.02487 -0.00879,-0.05704 0,-0.08342 0.00415,-0.01244 0.018537,-0.01854 0.027807,-0.02781 0.00927,-0.01854 0.022781,-0.03551 0.027807,-0.05561 0.00674,-0.02698 -0.00674,-0.05645 0,-0.08342 0.012107,-0.04842 0.043508,-0.09061 0.055614,-0.139035 0.015692,-0.06277 0.012086,-0.13177 0.027807,-0.194651 0.016224,-0.06489 0.070347,-0.129275 0.083422,-0.194651 0.00545,-0.02727 -0.00545,-0.05615 0,-0.08342 0.021775,-0.108873 0.076055,-0.228165 0.1112287,-0.333686 0.028913,-0.08674 0,-0.430027 0,-0.528337 0,-0.09281 -0.037158,-0.185789 -0.055614,-0.278072 -0.010226,-0.05113 0.016425,-0.117568 0,-0.166844 -0.00415,-0.01243 -0.023662,-0.01537 -0.027807,-0.02781 -0.00143,-0.0043 -0.027807,-0.208467 -0.027807,-0.222457 0,-0.02447 -0.019156,-0.194651 0.027807,-0.194651 0.00927,0 0,0.01854 0,0.02781 0,0.02781 0,0.05561 0,0.08342 0,0.05516 -0.017224,0.142979 0,0.19465 0.00415,0.01244 0.021945,0.01608 0.027807,0.02781 0.011546,0.02309 0,0.08487 0,0.111229 0,0.08845 0.034465,0.137861 0.055614,0.222458 0.00899,0.03597 -0.00899,0.07526 0,0.111229 0.02785,0.111401 0.047024,0.224494 0.083421,0.333686 0.013904,0.04171 -0.013904,0.09733 0,0.139036 0.00415,0.01244 0.023662,0.01537 0.027807,0.02781 0.016655,0.04997 -0.012806,0.115617 0,0.166843 0.020889,0.08356 0.03473,0.166727 0.055614,0.250265 0.017447,0.06979 -0.017447,0.152667 0,0.222457 0.018579,0.07432 0.040042,0.144596 0.055615,0.222458 0.00727,0.03636 -0.011724,0.07606 0,0.111229 0.00415,0.01243 0.023662,0.01537 0.027807,0.02781 0.0089,0.0267 -0.013346,0.08454 0,0.111229 0.030946,0.06189 0.059423,0.122654 0.083422,0.19465 0.00586,0.01759 -0.00829,0.03903 0,0.05561 0.011724,0.02345 0.041072,0.0338 0.055614,0.05562 0.023871,0.0358 0.070852,0.129135 0.083422,0.166843 0.011724,0.03517 -0.011724,0.07606 0,0.111229 0.00415,0.01243 0.021945,0.01608 0.027807,0.02781 0.012435,0.02487 -0.00879,0.05704 0,0.08342 0.00415,0.01243 0.021945,0.01608 0.027807,0.02781 0.00882,0.01764 0.047889,0.191558 0.055614,0.222457 0.021841,0.08737 0.016171,0.171377 0.055614,0.250265 0.018381,0.03676 -0.013047,0.0999 0,0.139036 0.046978,0.140933 0.036691,0.276917 0.083422,0.417108 0.014716,0.04415 -0.027807,0.056 -0.027807,0.08342 0,0.01311 0.024627,0.01509 0.027807,0.02781 0.030167,0.12067 0,0.292433 0,0.417108 0,0.02781 0,0.05561 0,0.08342 0,0.0093 -0.00927,0.02781 0,0.02781 0.018539,0 -0.00927,-0.02781 -0.027807,-0.02781"
         id="path24" />
      <path
         style="fill:none;fill-opacity:0;stroke:#000000;stroke-width:0.264583"
         d="M 7.674788,9.6490995 7.5913664,9.7603282"
         id="path25" />
      <path
         style="fill:none;fill-opacity:0;stroke:#000000;stroke-width:0.264583"
         d="m 6.4790782,9.1207626 c 0.037076,-0.00927 0.073201,-0.024003 0.111229,-0.027807 0.1743895,-0.017439 0.3537429,-0.011935 0.5283369,-0.027807 0.09277,-0.00843 0.1854888,-0.017521 0.2780718,-0.027807 0.075967,-0.00844 0.1464905,-0.047174 0.2224577,-0.055614 0.092124,-0.010237 0.1858415,0.00922 0.2780721,0 0.047029,-0.0047 0.092008,-0.023103 0.1390361,-0.027807 0.1714762,-0.017148 0.3372102,-0.00116 0.5005295,-0.055615 0.051732,-0.017243 0.2398083,0.038264 0.2780721,0 0.00655,-0.00655 -0.00655,-0.021254 0,-0.027807 0.027807,-0.027807 0.1390361,0.027807 0.1668433,0 0.00655,-0.00655 -0.00655,-0.021254 0,-0.027807 0.00736,-0.00736 0.071971,0 0.083422,0"
         id="path26" />
      <path
         style="fill:none;fill-opacity:0;stroke:#000000;stroke-width:0.264583"
         d="m 5.9785487,10.817002 c 0.1956091,0.004 0.3898194,-0.03404 0.5839513,-0.05561 0.2870409,-0.03189 0.5793989,-0.04305 0.8620234,-0.08342 0.029017,-0.0041 0.054405,-0.02366 0.083422,-0.02781 0.108984,-0.01557 0.2242209,0.01216 0.3336864,0 0.195167,-0.02169 0.3890211,-0.03125 0.5839513,-0.05561 0.045987,-0.0057 0.094074,0.01124 0.1390359,0 0.1404228,-0.03511 0.2672379,-0.05561 0.4171082,-0.05561 0.08951,0 -0.04747,0.0066 0.055614,-0.02781 0.00845,-0.0028 0.1872964,0 0.1112287,0"
         id="path27" />
      <path
         style="fill:none;fill-opacity:0;stroke:#000000;stroke-width:0.264583"
         d="m 6.8405721,5.2277541 c 0.1191527,0.013801 0.2224143,0.055604 0.3336864,0.083422 0.023482,0.00587 0.08692,-0.012155 0.1112287,0 0.040148,0.020074 0.071081,0.03554 0.1112287,0.055614 0.019465,0.00973 0.447352,0.040492 0.4727226,0.027807 0.029175,-0.014589 0.098264,-0.055614 0.1112287,-0.055614"
         id="path28" />
    </g>
  </g>
</svg>
